<svg xmlns="http://www.w3.org/2000/svg"
     width="178"
     height="32"
     viewBox="0 0 178 32"
     fill="none">
  <path d="M0 0.715908H11.624C13.495 0.715908 14.8441 1.13579 15.6685 1.97556C16.4928 2.81533 16.9034 3.99471 16.9034 5.51061V12.0991C16.9034 13.0685 16.7429 13.8682 16.4187 14.498C16.0945 15.1278 15.5789 15.5724 14.8688 15.8287C15.5789 16.088 16.0945 16.4986 16.4187 17.0636C16.7398 17.6286 16.9034 18.3788 16.9034 19.3174V26.4863C16.9034 28.0053 16.4928 29.1816 15.6685 30.0214C14.8441 30.8611 13.495 31.281 11.624 31.281H0V0.715908ZM11.3832 12.4881V6.09413C11.3832 5.57854 11.2875 5.22966 11.093 5.05368C10.8985 4.8777 10.528 4.78817 9.97842 4.78817H5.56964V13.7972H9.97842C10.528 13.7972 10.8985 13.7014 11.093 13.5069C11.2875 13.3124 11.3832 12.9728 11.3832 12.4912V12.4881ZM11.3832 25.9028V19.1692C11.3832 18.6536 11.2875 18.3047 11.093 18.1288C10.8985 17.9528 10.528 17.8632 9.97842 17.8632H5.56964V27.2118H9.97842C10.528 27.2118 10.8985 27.1223 11.093 26.9463C11.2875 26.7703 11.3832 26.4215 11.3832 25.9059V25.9028Z"
        fill="#024930"/>
  <path d="M34.9495 27.0204V31.281H20.0312V0.718994H34.5605V4.97958H25.6472V13.4575H33.1557V17.7675H25.6472V27.0204H34.9495Z"
        fill="#024930"/>
  <path d="M51.7705 27.0204V31.281H38.0625V0.715908H43.6321V27.0204H51.7705Z"
        fill="#024930"/>
  <path d="M68.6181 27.0204V31.281H54.9102V0.715908H60.4798V27.0204H68.6181Z"
        fill="#024930"/>
  <path d="M85.4008 0.718994H77.8923L71.7422 31.2841H77.3118L78.3986 24.9395H85.0642L86.2251 31.2841H91.8441L85.4008 0.718994ZM79.121 20.7222L81.6249 6.09413L84.2986 20.7222H79.1241H79.121Z"
        fill="#024930"/>
  <path d="M95.4023 0.752956H107.017C108.888 0.752956 110.234 1.17284 111.058 2.01261C111.88 2.85238 112.293 4.02867 112.293 5.54458V12.1269C112.293 13.0963 112.133 13.8929 111.809 14.5227C111.485 15.1525 110.969 15.5971 110.259 15.8533C110.969 16.1127 111.485 16.5233 111.809 17.0883C112.13 17.6533 112.293 18.4035 112.293 19.339V26.5017C112.293 28.0176 111.883 29.197 111.058 30.0337C110.237 30.8735 108.888 31.2934 107.017 31.2934H95.4023V0.752956ZM106.764 12.4665V6.10339C106.764 5.59089 106.668 5.2451 106.474 5.06603C106.282 4.89005 105.912 4.80052 105.365 4.80052H100.978V13.7663H105.365C105.912 13.7663 106.282 13.6706 106.474 13.4761C106.665 13.2816 106.764 12.945 106.764 12.4634V12.4665ZM106.764 25.8163V19.1167C106.764 18.6042 106.668 18.2584 106.474 18.0794C106.282 17.9034 105.912 17.8138 105.365 17.8138H100.978V27.1161H105.365C105.912 27.1161 106.282 27.0266 106.474 26.8506C106.665 26.6746 106.764 26.3288 106.764 25.8132V25.8163Z"
        fill="#024930"/>
  <path d="M130.657 1.9663C129.833 1.12653 128.484 0.706646 126.61 0.706646H120.697C118.857 0.706646 117.517 1.12653 116.678 1.9663C115.835 2.80607 115.418 3.98545 115.418 5.50444V26.4925C115.418 28.0115 115.835 29.1908 116.678 30.0306C117.517 30.8704 118.857 31.2903 120.697 31.2903H126.61C128.484 31.2903 129.833 30.8704 130.657 30.0306C131.482 29.1908 131.892 28.0115 131.892 26.4925V5.50444C131.892 3.98545 131.482 2.80607 130.657 1.9663ZM126.32 25.7175C126.32 26.2023 126.23 26.5419 126.054 26.7364C125.875 26.9278 125.511 27.0266 124.964 27.0266H122.395C121.846 27.0266 121.475 26.9278 121.281 26.7364C121.086 26.5419 120.991 26.2023 120.991 25.7175V6.28246C120.991 5.76687 121.086 5.41799 121.281 5.23892C121.475 5.06294 121.846 4.97341 122.395 4.97341H124.964C125.511 4.97341 125.875 5.06294 126.054 5.23892C126.23 5.41799 126.32 5.76687 126.32 6.28246V25.7175Z"
        fill="#024930"/>
  <path d="M146.844 0.706646H151.932V31.2841H146.699L140.157 11.0278V31.2841H135.02V0.706646H140.398L146.844 20.6728V0.706646Z"
        fill="#024930"/>
  <path d="M168.665 0.706646H161.153L155 31.2841H160.573L161.659 24.9364H168.328L169.489 31.2841H175.111L168.665 0.706646ZM162.382 20.7191L164.886 6.08487L167.559 20.7191H162.382Z"
        fill="#024930"/>
</svg>